<svg xmlns="http://www.w3.org/2000/svg" xmlns:v="https://vecta.io/nano" viewBox="0 0 200 200"><style>#E{animation:fadeIn 4s ease-in forwards infinite}#D{animation:dash1 4s ease-in-out forwards infinite}#C{animation:dash2 4s ease-in-out forwards infinite}#B{animation:dash3 4s ease-in-out forwards infinite}#A{animation:dash4 4s ease-in-out forwards infinite}@keyframes fadeIn{0%{opacity:0}50%{opacity:0}100%{opacity:1}} @keyframes fadeOut{from{opacity:1}to{opacity:0}} @keyframes dash1{0%{opacity:1;stroke-dashoffset:2000}50%{opacity:1;stroke-dashoffset:1000}100%{opacity:0;stroke-dashoffset:0}} @keyframes dash2{0%{opacity:0.7;stroke-dashoffset:2050}50%{opacity:0.35;stroke-dashoffset:1025}100%{opacity:0;stroke-dashoffset:0}} @keyframes dash3{0%{opacity:0.45;stroke-dashoffset:2100}50%{opacity:0.225;stroke-dashoffset:1050}100%{opacity:0;stroke-dashoffset:0}} @keyframes dash4{0%{opacity:0.25;stroke-dashoffset:2150}50%{opacity:0.125;stroke-dashoffset:1100}100%{opacity:0;stroke-dashoffset:0}}.B{stroke-linecap:round}.C{stroke-linejoin:round}.D{stroke-width:5}.E{stroke:#f22b25}.F{stroke-dasharray:50, 2000}.G{stroke-dashoffset:2000}</style><path fill="none" d="M55.912 166v-22h88.176v22zm78.32-77.088v22h-78.32v-22zM55.912 34h88.176v22H55.912z" id="A" opacity="1" class="B C D E F G"></path><path fill="none" d="M55.912 166v-22h88.176v22zm78.32-77.088v22h-78.32v-22zM55.912 34h88.176v22H55.912z" id="B" opacity="1" class="B C D E F G"></path><path fill="none" d="M55.912 166v-22h88.176v22zm78.32-77.088v22h-78.32v-22zM55.912 34h88.176v22H55.912z" id="C" opacity="1" class="B C D E F G"></path><path fill="none" d="M55.912 166v-22h88.176v22zm78.32-77.088v22h-78.32v-22zM55.912 34h88.176v22H55.912z" id="D" opacity="1" class="B C D E F G"></path><g id="E" opacity="0"><path d="M55.912 166v-22h88.176v22zm78.32-77.088v22h-78.32v-22zM55.912 34h88.176v22H55.912z" fill="#f22b25"></path></g></svg>